<svg width="203" height="62" viewBox="0 0 203 62" fill="none" xmlns="http://www.w3.org/2000/svg">
<g filter="url(#filter0_di_32_63173)">
<path d="M187.869 11.3176C187.869 9.44353 189.388 7.92432 191.262 7.92432H192.607C194.481 7.92432 196 9.44353 196 11.3176V50.8311C196 52.7051 194.481 54.2243 192.607 54.2243H190.541C189.338 54.2243 188.226 53.588 187.616 52.5516L171.536 25.2164C171.185 24.6204 170.272 24.8691 170.272 25.5605V50.8311C170.272 52.7051 168.753 54.2243 166.879 54.2243H165.534C163.66 54.2243 162.141 52.7051 162.141 50.8311V11.3176C162.141 9.44353 163.66 7.92432 165.534 7.92432H167.852C169.058 7.92432 170.173 8.56388 170.781 9.60446L186.604 36.6579C186.954 37.2555 187.869 37.0076 187.869 36.3153V11.3176Z" fill="url(#paint0_linear_32_63173)"/>
<path d="M7.11759 44.0678C6.61085 42.2636 8.17503 40.7161 10.0491 40.7161H11.3871C13.2299 40.7161 14.6809 42.2837 15.6505 43.8508C17.0042 46.0387 19.7159 47.6156 23.2198 47.6156C28.2535 47.6156 30.8779 44.7083 30.8779 41.1067C30.8779 37.5051 28.1675 35.9863 24.2954 34.9449L18.5733 33.3394C8.72093 30.7792 7 24.791 7 20.7555C7 12.5543 14.1419 7 22.5744 7C29.8515 7 35.7189 10.9102 37.1901 17.5594C37.595 19.3891 36.0273 20.9291 34.1533 20.9291H32.8944C31.0204 20.9291 29.5997 19.3085 28.6838 17.6734C27.5402 15.6317 25.2716 14.3334 22.3593 14.3334C18.1 14.3334 15.1744 17.0237 15.1744 20.6687C15.1744 24.3137 15.5616 24.6174 20.8535 26.0494L26.3175 27.6549C33.5023 29.651 39.0524 33.4262 39.0524 40.8029C39.0524 48.1797 32.0396 54.9055 23.0477 54.9055C15.3784 54.9055 8.86707 50.2968 7.11759 44.0678Z" fill="url(#paint1_linear_32_63173)"/>
<path d="M54.5435 14.0156C46.8695 21.7555 45.8349 33.3377 50.9051 42.3539C51.9003 44.1237 54.2724 44.2543 55.699 42.8155L56.7945 41.7106C57.9728 40.5221 58.0802 38.6585 57.331 37.1572C54.4373 31.3588 55.0207 24.3962 59.8674 19.5079C64.7186 14.615 71.7227 13.9367 77.5147 16.8243C79.0035 17.5665 80.8436 17.455 82.0179 16.2706L83.0983 15.1809C84.5248 13.7421 84.3954 11.3497 82.6406 10.3459C73.7012 5.23221 62.2176 6.27563 54.5435 14.0156Z" fill="url(#paint2_linear_32_63173)"/>
<path d="M85.9116 20.1558C84.7336 21.3439 84.6266 23.207 85.3681 24.7116C88.2622 30.5836 87.5412 37.6831 82.7147 42.5511C77.8938 47.4134 70.9464 48.0304 65.1773 45.094C63.6863 44.3351 61.8333 44.4408 60.6523 45.632L59.5573 46.7364C58.1338 48.1721 58.2588 50.5588 60.0071 51.5653C68.9515 56.715 80.4563 55.6293 88.1298 47.89C95.8033 40.1506 96.8797 28.547 91.7739 19.5258C90.7759 17.7625 88.4095 17.6364 86.9861 19.0721L85.9116 20.1558Z" fill="url(#paint3_linear_32_63173)"/>
<path d="M141.531 20.0641C140.359 21.2558 140.252 23.1241 140.986 24.6354C143.841 30.5181 143.094 37.646 138.269 42.5516C133.45 47.4514 126.531 48.1004 120.798 45.1791C119.312 44.4221 117.469 44.5288 116.294 45.7236L115.179 46.8565C113.761 48.2987 113.887 50.6968 115.631 51.703C124.518 56.8272 135.972 55.6874 143.641 47.89C151.311 40.0925 152.432 28.4464 147.392 19.4117C146.402 17.6376 144.044 17.5098 142.625 18.952L141.531 20.0641ZM110.324 14.0156C102.654 21.8136 101.575 33.438 106.579 42.4677C107.566 44.2485 109.931 44.3809 111.352 42.9355L112.467 41.8021C113.64 40.6101 113.747 38.7412 113.006 37.2332C110.15 31.4244 110.76 24.4345 115.605 19.5084C120.454 14.5778 127.43 13.8671 133.187 16.7395C134.67 17.4796 136.5 17.367 137.669 16.1791L138.768 15.061C140.19 13.6157 140.06 11.2118 138.308 10.2083C129.427 5.12023 117.994 6.21768 110.324 14.0156Z" fill="url(#paint4_linear_32_63173)"/>
</g>
<defs>
<filter id="filter0_di_32_63173" x="0.213473" y="0.213473" width="202.573" height="61.4786" filterUnits="userSpaceOnUse" color-interpolation-filters="sRGB">
<feFlood flood-opacity="0" result="BackgroundImageFix"/>
<feColorMatrix in="SourceAlpha" type="matrix" values="0 0 0 0 0 0 0 0 0 0 0 0 0 0 0 0 0 0 127 0" result="hardAlpha"/>
<feOffset/>
<feGaussianBlur stdDeviation="3.39326"/>
<feComposite in2="hardAlpha" operator="out"/>
<feColorMatrix type="matrix" values="0 0 0 0 1 0 0 0 0 0 0 0 0 0 0 0 0 0 0.7 0"/>
<feBlend mode="normal" in2="BackgroundImageFix" result="effect1_dropShadow_32_63173"/>
<feBlend mode="normal" in="SourceGraphic" in2="effect1_dropShadow_32_63173" result="shape"/>
<feColorMatrix in="SourceAlpha" type="matrix" values="0 0 0 0 0 0 0 0 0 0 0 0 0 0 0 0 0 0 127 0" result="hardAlpha"/>
<feOffset dy="4.07192"/>
<feGaussianBlur stdDeviation="2.71461"/>
<feComposite in2="hardAlpha" operator="arithmetic" k2="-1" k3="1"/>
<feColorMatrix type="matrix" values="0 0 0 0 0.964706 0 0 0 0 0.0392157 0 0 0 0 0.231373 0 0 0 1 0"/>
<feBlend mode="normal" in2="shape" result="effect2_innerShadow_32_63173"/>
</filter>
<linearGradient id="paint0_linear_32_63173" x1="179.07" y1="7.92432" x2="179.07" y2="54.2243" gradientUnits="userSpaceOnUse">
<stop stop-color="#A5062C"/>
<stop offset="1" stop-color="#800826"/>
</linearGradient>
<linearGradient id="paint1_linear_32_63173" x1="23.0262" y1="7" x2="23.0262" y2="54.9055" gradientUnits="userSpaceOnUse">
<stop stop-color="#A5062C"/>
<stop offset="1" stop-color="#800826"/>
</linearGradient>
<linearGradient id="paint2_linear_32_63173" x1="65.9284" y1="7.19818" x2="65.9284" y2="43.7982" gradientUnits="userSpaceOnUse">
<stop stop-color="#A5062C"/>
<stop offset="1" stop-color="#800826"/>
</linearGradient>
<linearGradient id="paint3_linear_32_63173" x1="76.7454" y1="18.0895" x2="76.7454" y2="54.7262" gradientUnits="userSpaceOnUse">
<stop stop-color="#A5062C"/>
<stop offset="1" stop-color="#800826"/>
</linearGradient>
<linearGradient id="paint4_linear_32_63173" x1="126.992" y1="7.10425" x2="126.992" y2="54.8204" gradientUnits="userSpaceOnUse">
<stop stop-color="#A5062C"/>
<stop offset="1" stop-color="#800826"/>
</linearGradient>
</defs>
</svg>
